<?xml version="1.0" encoding="us-ascii" standalone="no"?><svg xmlns="http://www.w3.org/2000/svg" xmlns:xlink="http://www.w3.org/1999/xlink" contentStyleType="text/css" height="824px" preserveAspectRatio="none" style="width:1176px;height:824px;background:#FFFFFF;" version="1.1" viewBox="0 0 1176 824" width="1176px" zoomAndPan="magnify"><defs/><g><!--class Point--><g id="elem_Point"><rect codeLine="2" fill="#F1F1F1" height="200.5433" id="Point" rx="2.5" ry="2.5" style="stroke:#181818;stroke-width:0.5;" width="222" x="319" y="617"/><ellipse cx="408.75" cy="633" fill="#ADD1B2" rx="11" ry="11" style="stroke:#181818;stroke-width:1.0;"/><path d="M411.7188,638.6406 Q411.1406,638.9375 410.5,639.0781 Q409.8594,639.2344 409.1563,639.2344 Q406.6563,639.2344 405.3281,637.5938 Q404.0156,635.9375 404.0156,632.8125 Q404.0156,629.6875 405.3281,628.0313 Q406.6563,626.375 409.1563,626.375 Q409.8594,626.375 410.5,626.5313 Q411.1563,626.6875 411.7188,626.9844 L411.7188,629.7031 Q411.0938,629.125 410.5,628.8594 Q409.9063,628.5781 409.2813,628.5781 Q407.9375,628.5781 407.25,629.6563 Q406.5625,630.7188 406.5625,632.8125 Q406.5625,634.9063 407.25,635.9844 Q407.9375,637.0469 409.2813,637.0469 Q409.9063,637.0469 410.5,636.7813 Q411.0938,636.5 411.7188,635.9219 L411.7188,638.6406 Z " fill="#000000"/><text fill="#000000" font-family="sans-serif" font-size="14" lengthAdjust="spacing" textLength="34" x="429.25" y="638.432">Point</text><line style="stroke:#181818;stroke-width:0.5;" x1="320" x2="540" y1="649" y2="649"/><rect fill="none" height="6" style="stroke:#C82930;stroke-width:1.0;" width="6" x="327" y="661.034"/><text fill="#000000" font-family="sans-serif" font-size="14" lengthAdjust="spacing" textLength="62" x="339" y="667.9659">x: double</text><rect fill="none" height="6" style="stroke:#C82930;stroke-width:1.0;" width="6" x="327" y="680.1019"/><text fill="#000000" font-family="sans-serif" font-size="14" lengthAdjust="spacing" textLength="62" x="339" y="687.0339">y: double</text><line style="stroke:#181818;stroke-width:0.5;" x1="320" x2="540" y1="695.1358" y2="695.1358"/><ellipse cx="330" cy="710.1698" fill="#84BE84" rx="3" ry="3" style="stroke:#038048;stroke-width:1.0;"/><text fill="#000000" font-family="sans-serif" font-size="14" lengthAdjust="spacing" textLength="174" x="339" y="714.1018">Point(x: double, y: double)</text><ellipse cx="330" cy="729.2377" fill="#84BE84" rx="3" ry="3" style="stroke:#038048;stroke-width:1.0;"/><text fill="#000000" font-family="sans-serif" font-size="14" lengthAdjust="spacing" textLength="93" x="339" y="733.1697">getX(): double</text><ellipse cx="330" cy="748.3056" fill="#84BE84" rx="3" ry="3" style="stroke:#038048;stroke-width:1.0;"/><text fill="#000000" font-family="sans-serif" font-size="14" lengthAdjust="spacing" textLength="93" x="339" y="752.2376">getY(): double</text><ellipse cx="330" cy="767.3735" fill="#84BE84" rx="3" ry="3" style="stroke:#038048;stroke-width:1.0;"/><text fill="#000000" font-family="sans-serif" font-size="14" lengthAdjust="spacing" textLength="86" x="339" y="771.3055">clone(): Point</text><ellipse cx="330" cy="786.4415" fill="#84BE84" rx="3" ry="3" style="stroke:#038048;stroke-width:1.0;"/><text fill="#000000" font-family="sans-serif" font-size="14" lengthAdjust="spacing" textLength="196" x="339" y="790.3734">moveX(delta: double): double</text><ellipse cx="330" cy="805.5094" fill="#84BE84" rx="3" ry="3" style="stroke:#038048;stroke-width:1.0;"/><text fill="#000000" font-family="sans-serif" font-size="14" lengthAdjust="spacing" textLength="196" x="339" y="809.4414">moveY(delta: double): double</text></g><!--class Line--><g id="elem_Line"><rect codeLine="13" fill="#F1F1F1" height="200.5433" id="Line" rx="2.5" ry="2.5" style="stroke:#181818;stroke-width:0.5;" width="332" x="81" y="356"/><ellipse cx="228.75" cy="372" fill="#ADD1B2" rx="11" ry="11" style="stroke:#181818;stroke-width:1.0;"/><path d="M231.7188,377.6406 Q231.1406,377.9375 230.5,378.0781 Q229.8594,378.2344 229.1563,378.2344 Q226.6563,378.2344 225.3281,376.5938 Q224.0156,374.9375 224.0156,371.8125 Q224.0156,368.6875 225.3281,367.0313 Q226.6563,365.375 229.1563,365.375 Q229.8594,365.375 230.5,365.5313 Q231.1563,365.6875 231.7188,365.9844 L231.7188,368.7031 Q231.0938,368.125 230.5,367.8594 Q229.9063,367.5781 229.2813,367.5781 Q227.9375,367.5781 227.25,368.6563 Q226.5625,369.7188 226.5625,371.8125 Q226.5625,373.9063 227.25,374.9844 Q227.9375,376.0469 229.2813,376.0469 Q229.9063,376.0469 230.5,375.7813 Q231.0938,375.5 231.7188,374.9219 L231.7188,377.6406 Z " fill="#000000"/><text fill="#000000" font-family="sans-serif" font-size="14" lengthAdjust="spacing" textLength="28" x="249.25" y="377.432">Line</text><line style="stroke:#181818;stroke-width:0.5;" x1="82" x2="412" y1="388" y2="388"/><rect fill="none" height="6" style="stroke:#C82930;stroke-width:1.0;" width="6" x="89" y="400.034"/><text fill="#000000" font-family="sans-serif" font-size="14" lengthAdjust="spacing" textLength="86" x="101" y="406.9659">pointA: Point</text><rect fill="none" height="6" style="stroke:#C82930;stroke-width:1.0;" width="6" x="89" y="419.1019"/><text fill="#000000" font-family="sans-serif" font-size="14" lengthAdjust="spacing" textLength="86" x="101" y="426.0339">pointB: Point</text><line style="stroke:#181818;stroke-width:0.5;" x1="82" x2="412" y1="434.1358" y2="434.1358"/><ellipse cx="92" cy="449.1698" fill="#84BE84" rx="3" ry="3" style="stroke:#038048;stroke-width:1.0;"/><text fill="#000000" font-family="sans-serif" font-size="14" lengthAdjust="spacing" textLength="216" x="101" y="453.1018">Line(pointA: Point, pointB: Point)</text><ellipse cx="92" cy="468.2377" fill="#84BE84" rx="3" ry="3" style="stroke:#038048;stroke-width:1.0;"/><text fill="#000000" font-family="sans-serif" font-size="14" lengthAdjust="spacing" textLength="115" x="101" y="472.1697">getPointA(): Point</text><ellipse cx="92" cy="487.3056" fill="#84BE84" rx="3" ry="3" style="stroke:#038048;stroke-width:1.0;"/><text fill="#000000" font-family="sans-serif" font-size="14" lengthAdjust="spacing" textLength="115" x="101" y="491.2376">getPointB(): Point</text><ellipse cx="92" cy="506.3735" fill="#84BE84" rx="3" ry="3" style="stroke:#038048;stroke-width:1.0;"/><text fill="#000000" font-family="sans-serif" font-size="14" lengthAdjust="spacing" textLength="122" x="101" y="510.3055">getSlope(): double</text><ellipse cx="92" cy="525.4415" fill="#84BE84" rx="3" ry="3" style="stroke:#038048;stroke-width:1.0;"/><text fill="#000000" font-family="sans-serif" font-size="14" lengthAdjust="spacing" textLength="132" x="101" y="529.3734">getLength(): double</text><ellipse cx="92" cy="544.5094" fill="#84BE84" rx="3" ry="3" style="stroke:#038048;stroke-width:1.0;"/><text fill="#000000" font-family="sans-serif" font-size="14" lengthAdjust="spacing" textLength="306" x="101" y="548.4414">translate(deltaX: double, deltaY: double): void</text></g><!--class Shape--><g id="elem_Shape"><rect codeLine="24" fill="#F1F1F1" height="124.2717" id="Shape" rx="2.5" ry="2.5" style="stroke:#181818;stroke-width:0.5;" width="332" x="448" y="394.5"/><ellipse cx="590.75" cy="410.5" fill="#A9DCDF" rx="11" ry="11" style="stroke:#181818;stroke-width:1.0;"/><path d="M590.8594,405.8438 L589.7031,410.9219 L592.0313,410.9219 L590.8594,405.8438 Z M589.375,403.6094 L592.3594,403.6094 L595.7188,416 L593.2656,416 L592.5,412.9375 L589.2188,412.9375 L588.4688,416 L586.0313,416 L589.375,403.6094 Z " fill="#000000"/><text fill="#000000" font-family="sans-serif" font-size="14" font-style="italic" lengthAdjust="spacing" textLength="38" x="611.25" y="415.932">Shape</text><line style="stroke:#181818;stroke-width:0.5;" x1="449" x2="779" y1="426.5" y2="426.5"/><rect fill="none" height="6" style="stroke:#C82930;stroke-width:1.0;" width="6" x="456" y="438.534"/><text fill="#000000" font-family="sans-serif" font-size="14" lengthAdjust="spacing" textLength="123" x="468" y="445.4659">points: List&lt;Point&gt;</text><line style="stroke:#181818;stroke-width:0.5;" x1="449" x2="779" y1="453.5679" y2="453.5679"/><ellipse cx="459" cy="468.6019" fill="#84BE84" rx="3" ry="3" style="stroke:#038048;stroke-width:1.0;"/><text fill="#000000" font-family="sans-serif" font-size="14" font-style="italic" lengthAdjust="spacing" textLength="108" x="468" y="472.5339">getArea(): double</text><ellipse cx="459" cy="487.6698" fill="#84BE84" rx="3" ry="3" style="stroke:#038048;stroke-width:1.0;"/><text fill="#000000" font-family="sans-serif" font-size="14" lengthAdjust="spacing" textLength="152" x="468" y="491.6018">getPoints(): List&lt;Point&gt;</text><ellipse cx="459" cy="506.7377" fill="#84BE84" rx="3" ry="3" style="stroke:#038048;stroke-width:1.0;"/><text fill="#000000" font-family="sans-serif" font-size="14" lengthAdjust="spacing" textLength="306" x="468" y="510.6697">translate(deltaX: double, deltaY: double): void</text></g><!--class Rectangle--><g id="elem_Rectangle"><rect codeLine="31" fill="#F1F1F1" height="105.2038" id="Rectangle" rx="2.5" ry="2.5" style="stroke:#181818;stroke-width:0.5;" width="380" x="7" y="162.5"/><ellipse cx="159.25" cy="178.5" fill="#ADD1B2" rx="11" ry="11" style="stroke:#181818;stroke-width:1.0;"/><path d="M162.2188,184.1406 Q161.6406,184.4375 161,184.5781 Q160.3594,184.7344 159.6563,184.7344 Q157.1563,184.7344 155.8281,183.0938 Q154.5156,181.4375 154.5156,178.3125 Q154.5156,175.1875 155.8281,173.5313 Q157.1563,171.875 159.6563,171.875 Q160.3594,171.875 161,172.0313 Q161.6563,172.1875 162.2188,172.4844 L162.2188,175.2031 Q161.5938,174.625 161,174.3594 Q160.4063,174.0781 159.7813,174.0781 Q158.4375,174.0781 157.75,175.1563 Q157.0625,176.2188 157.0625,178.3125 Q157.0625,180.4063 157.75,181.4844 Q158.4375,182.5469 159.7813,182.5469 Q160.4063,182.5469 161,182.2813 Q161.5938,182 162.2188,181.4219 L162.2188,184.1406 Z " fill="#000000"/><text fill="#000000" font-family="sans-serif" font-size="14" lengthAdjust="spacing" textLength="67" x="179.75" y="183.932">Rectangle</text><line style="stroke:#181818;stroke-width:0.5;" x1="8" x2="386" y1="194.5" y2="194.5"/><line style="stroke:#181818;stroke-width:0.5;" x1="8" x2="386" y1="202.5" y2="202.5"/><ellipse cx="18" cy="217.534" fill="#84BE84" rx="3" ry="3" style="stroke:#038048;stroke-width:1.0;"/><text fill="#000000" font-family="sans-serif" font-size="14" lengthAdjust="spacing" textLength="198" x="27" y="221.4659">Rectangle(points: List&lt;Point&gt;)</text><rect fill="#F24D5C" height="6" style="stroke:#C82930;stroke-width:1.0;" width="6" x="15" y="233.6019"/><text fill="#000000" font-family="sans-serif" font-size="14" lengthAdjust="spacing" textLength="354" x="27" y="240.5339">checkRectangleHasArea(points: List&lt;Point&gt;): boolean</text><ellipse cx="18" cy="255.6698" fill="#84BE84" rx="3" ry="3" style="stroke:#038048;stroke-width:1.0;"/><text fill="#000000" font-family="sans-serif" font-size="14" lengthAdjust="spacing" textLength="116" x="27" y="259.6018">getArea(): double</text></g><!--class Square--><g id="elem_Square"><rect codeLine="37" fill="#F1F1F1" height="67.0679" id="Square" rx="2.5" ry="2.5" style="stroke:#181818;stroke-width:0.5;" width="205" x="94.5" y="7"/><ellipse cx="168.75" cy="23" fill="#ADD1B2" rx="11" ry="11" style="stroke:#181818;stroke-width:1.0;"/><path d="M171.7188,28.6406 Q171.1406,28.9375 170.5,29.0781 Q169.8594,29.2344 169.1563,29.2344 Q166.6563,29.2344 165.3281,27.5938 Q164.0156,25.9375 164.0156,22.8125 Q164.0156,19.6875 165.3281,18.0313 Q166.6563,16.375 169.1563,16.375 Q169.8594,16.375 170.5,16.5313 Q171.1563,16.6875 171.7188,16.9844 L171.7188,19.7031 Q171.0938,19.125 170.5,18.8594 Q169.9063,18.5781 169.2813,18.5781 Q167.9375,18.5781 167.25,19.6563 Q166.5625,20.7188 166.5625,22.8125 Q166.5625,24.9063 167.25,25.9844 Q167.9375,27.0469 169.2813,27.0469 Q169.9063,27.0469 170.5,26.7813 Q171.0938,26.5 171.7188,25.9219 L171.7188,28.6406 Z " fill="#000000"/><text fill="#000000" font-family="sans-serif" font-size="14" lengthAdjust="spacing" textLength="48" x="189.25" y="28.432">Square</text><line style="stroke:#181818;stroke-width:0.5;" x1="95.5" x2="298.5" y1="39" y2="39"/><line style="stroke:#181818;stroke-width:0.5;" x1="95.5" x2="298.5" y1="47" y2="47"/><ellipse cx="105.5" cy="62.034" fill="#84BE84" rx="3" ry="3" style="stroke:#038048;stroke-width:1.0;"/><text fill="#000000" font-family="sans-serif" font-size="14" lengthAdjust="spacing" textLength="179" x="114.5" y="65.9659">Square(points: List&lt;Point&gt;)</text></g><!--class Ellipse--><g id="elem_Ellipse"><rect codeLine="41" fill="#F1F1F1" height="162.4075" id="Ellipse" rx="2.5" ry="2.5" style="stroke:#181818;stroke-width:0.5;" width="383" x="422.5" y="134"/><ellipse cx="587.75" cy="150" fill="#ADD1B2" rx="11" ry="11" style="stroke:#181818;stroke-width:1.0;"/><path d="M590.7188,155.6406 Q590.1406,155.9375 589.5,156.0781 Q588.8594,156.2344 588.1563,156.2344 Q585.6563,156.2344 584.3281,154.5938 Q583.0156,152.9375 583.0156,149.8125 Q583.0156,146.6875 584.3281,145.0313 Q585.6563,143.375 588.1563,143.375 Q588.8594,143.375 589.5,143.5313 Q590.1563,143.6875 590.7188,143.9844 L590.7188,146.7031 Q590.0938,146.125 589.5,145.8594 Q588.9063,145.5781 588.2813,145.5781 Q586.9375,145.5781 586.25,146.6563 Q585.5625,147.7188 585.5625,149.8125 Q585.5625,151.9063 586.25,152.9844 Q586.9375,154.0469 588.2813,154.0469 Q588.9063,154.0469 589.5,153.7813 Q590.0938,153.5 590.7188,152.9219 L590.7188,155.6406 Z " fill="#000000"/><text fill="#000000" font-family="sans-serif" font-size="14" lengthAdjust="spacing" textLength="44" x="608.25" y="155.432">Ellipse</text><line style="stroke:#181818;stroke-width:0.5;" x1="423.5" x2="804.5" y1="166" y2="166"/><rect fill="none" height="6" style="stroke:#C82930;stroke-width:1.0;" width="6" x="430.5" y="178.034"/><text fill="#000000" font-family="sans-serif" font-size="14" lengthAdjust="spacing" textLength="106" x="442.5" y="184.9659">radiusX: double</text><rect fill="none" height="6" style="stroke:#C82930;stroke-width:1.0;" width="6" x="430.5" y="197.1019"/><text fill="#000000" font-family="sans-serif" font-size="14" lengthAdjust="spacing" textLength="106" x="442.5" y="204.0339">radiusY: double</text><line style="stroke:#181818;stroke-width:0.5;" x1="423.5" x2="804.5" y1="212.1358" y2="212.1358"/><ellipse cx="433.5" cy="227.1698" fill="#84BE84" rx="3" ry="3" style="stroke:#038048;stroke-width:1.0;"/><text fill="#000000" font-family="sans-serif" font-size="14" lengthAdjust="spacing" textLength="357" x="442.5" y="231.1018">Ellipse(point: Point, radiusX: double, radiusY: double)</text><ellipse cx="433.5" cy="246.2377" fill="#84BE84" rx="3" ry="3" style="stroke:#038048;stroke-width:1.0;"/><text fill="#000000" font-family="sans-serif" font-size="14" lengthAdjust="spacing" textLength="116" x="442.5" y="250.1697">getArea(): double</text><ellipse cx="433.5" cy="265.3056" fill="#84BE84" rx="3" ry="3" style="stroke:#038048;stroke-width:1.0;"/><text fill="#000000" font-family="sans-serif" font-size="14" lengthAdjust="spacing" textLength="139" x="442.5" y="269.2376">getRadiusX(): double</text><ellipse cx="433.5" cy="284.3735" fill="#84BE84" rx="3" ry="3" style="stroke:#038048;stroke-width:1.0;"/><text fill="#000000" font-family="sans-serif" font-size="14" lengthAdjust="spacing" textLength="139" x="442.5" y="288.3055">getRadiusY(): double</text></g><!--class Circle--><g id="elem_Circle"><rect codeLine="50" fill="#F1F1F1" height="67.0679" id="Circle" rx="2.5" ry="2.5" style="stroke:#181818;stroke-width:0.5;" width="255" x="486.5" y="7"/><ellipse cx="590.75" cy="23" fill="#ADD1B2" rx="11" ry="11" style="stroke:#181818;stroke-width:1.0;"/><path d="M593.7188,28.6406 Q593.1406,28.9375 592.5,29.0781 Q591.8594,29.2344 591.1563,29.2344 Q588.6563,29.2344 587.3281,27.5938 Q586.0156,25.9375 586.0156,22.8125 Q586.0156,19.6875 587.3281,18.0313 Q588.6563,16.375 591.1563,16.375 Q591.8594,16.375 592.5,16.5313 Q593.1563,16.6875 593.7188,16.9844 L593.7188,19.7031 Q593.0938,19.125 592.5,18.8594 Q591.9063,18.5781 591.2813,18.5781 Q589.9375,18.5781 589.25,19.6563 Q588.5625,20.7188 588.5625,22.8125 Q588.5625,24.9063 589.25,25.9844 Q589.9375,27.0469 591.2813,27.0469 Q591.9063,27.0469 592.5,26.7813 Q593.0938,26.5 593.7188,25.9219 L593.7188,28.6406 Z " fill="#000000"/><text fill="#000000" font-family="sans-serif" font-size="14" lengthAdjust="spacing" textLength="38" x="611.25" y="28.432">Circle</text><line style="stroke:#181818;stroke-width:0.5;" x1="487.5" x2="740.5" y1="39" y2="39"/><line style="stroke:#181818;stroke-width:0.5;" x1="487.5" x2="740.5" y1="47" y2="47"/><ellipse cx="497.5" cy="62.034" fill="#84BE84" rx="3" ry="3" style="stroke:#038048;stroke-width:1.0;"/><text fill="#000000" font-family="sans-serif" font-size="14" lengthAdjust="spacing" textLength="229" x="506.5" y="65.9659">Circle(point: Point, radius: double)</text></g><!--class Triangle--><g id="elem_Triangle"><rect codeLine="54" fill="#F1F1F1" height="105.2038" id="Triangle" rx="2.5" ry="2.5" style="stroke:#181818;stroke-width:0.5;" width="329" x="840.5" y="162.5"/><ellipse cx="972.75" cy="178.5" fill="#ADD1B2" rx="11" ry="11" style="stroke:#181818;stroke-width:1.0;"/><path d="M975.7188,184.1406 Q975.1406,184.4375 974.5,184.5781 Q973.8594,184.7344 973.1563,184.7344 Q970.6563,184.7344 969.3281,183.0938 Q968.0156,181.4375 968.0156,178.3125 Q968.0156,175.1875 969.3281,173.5313 Q970.6563,171.875 973.1563,171.875 Q973.8594,171.875 974.5,172.0313 Q975.1563,172.1875 975.7188,172.4844 L975.7188,175.2031 Q975.0938,174.625 974.5,174.3594 Q973.9063,174.0781 973.2813,174.0781 Q971.9375,174.0781 971.25,175.1563 Q970.5625,176.2188 970.5625,178.3125 Q970.5625,180.4063 971.25,181.4844 Q971.9375,182.5469 973.2813,182.5469 Q973.9063,182.5469 974.5,182.2813 Q975.0938,182 975.7188,181.4219 L975.7188,184.1406 Z " fill="#000000"/><text fill="#000000" font-family="sans-serif" font-size="14" lengthAdjust="spacing" textLength="56" x="993.25" y="183.932">Triangle</text><line style="stroke:#181818;stroke-width:0.5;" x1="841.5" x2="1168.5" y1="194.5" y2="194.5"/><line style="stroke:#181818;stroke-width:0.5;" x1="841.5" x2="1168.5" y1="202.5" y2="202.5"/><ellipse cx="851.5" cy="217.534" fill="#84BE84" rx="3" ry="3" style="stroke:#038048;stroke-width:1.0;"/><text fill="#000000" font-family="sans-serif" font-size="14" lengthAdjust="spacing" textLength="187" x="860.5" y="221.4659">Triangle(points: List&lt;Point&gt;)</text><rect fill="#F24D5C" height="6" style="stroke:#C82930;stroke-width:1.0;" width="6" x="848.5" y="233.6019"/><text fill="#000000" font-family="sans-serif" font-size="14" lengthAdjust="spacing" textLength="303" x="860.5" y="240.5339">checkColinearity(points: List&lt;Point&gt;): boolean</text><ellipse cx="851.5" cy="255.6698" fill="#84BE84" rx="3" ry="3" style="stroke:#038048;stroke-width:1.0;"/><text fill="#000000" font-family="sans-serif" font-size="14" lengthAdjust="spacing" textLength="116" x="860.5" y="259.6018">getArea(): double</text></g><!--link Shape to Point--><g id="link_Shape_Point"><path codeLine="60" d="M570.63,518.55 C549.8,547.86 531.26,573.9575 507.73,607.0775 " fill="none" id="Shape-to-Point" style="stroke:#181818;stroke-width:1.0;"/><polygon fill="#181818" points="500.78,616.86,507.5158,614.2854,507.73,607.0775,500.9941,609.6521,500.78,616.86" style="stroke:#181818;stroke-width:1.0;"/><text fill="#000000" font-family="sans-serif" font-size="13" lengthAdjust="spacing" textLength="7" x="558.2107" y="540.6295">1</text><text fill="#000000" font-family="sans-serif" font-size="13" lengthAdjust="spacing" textLength="20" x="485.6234" y="605.1062">1..*</text></g><!--link Line to Point--><g id="link_Line_Point"><path codeLine="61" d="M317.49,557.27 C331.28,576.79 338.8251,587.4597 352.6251,606.9897 " fill="none" id="Line-to-Point" style="stroke:#181818;stroke-width:1.0;"/><polygon fill="#181818" points="359.55,616.79,359.3543,609.5816,352.6251,606.9897,352.8208,614.1982,359.55,616.79" style="stroke:#181818;stroke-width:1.0;"/><text fill="#000000" font-family="sans-serif" font-size="13" lengthAdjust="spacing" textLength="7" x="314.9909" y="578.5477">1</text><text fill="#000000" font-family="sans-serif" font-size="13" lengthAdjust="spacing" textLength="7" x="346.6571" y="605.0307">2</text></g><!--link Rectangle to Shape--><g id="link_Rectangle_Shape"><path codeLine="62" d="M286.71,267.53 C351.46,304.71 423.5409,346.1158 491.8509,385.3458 " fill="none" id="Rectangle-to-Shape" style="stroke:#181818;stroke-width:1.0;"/><polygon fill="none" points="507.46,394.31,494.839,380.1428,488.8629,390.5488,507.46,394.31" style="stroke:#181818;stroke-width:1.0;"/></g><!--link Square to Rectangle--><g id="link_Square_Rectangle"><path codeLine="63" d="M197,74.35 C197,99.18 197,115.74 197,144.27 " fill="none" id="Square-to-Rectangle" style="stroke:#181818;stroke-width:1.0;"/><polygon fill="none" points="197,162.27,203,144.27,191,144.27,197,162.27" style="stroke:#181818;stroke-width:1.0;"/></g><!--link Ellipse to Shape--><g id="link_Ellipse_Shape"><path codeLine="64" d="M614,296.08 C614,328.18 614,346.55 614,376.45 " fill="none" id="Ellipse-to-Shape" style="stroke:#181818;stroke-width:1.0;"/><polygon fill="none" points="614,394.45,620,376.45,608,376.45,614,394.45" style="stroke:#181818;stroke-width:1.0;"/></g><!--link Circle to Ellipse--><g id="link_Circle_Ellipse"><path codeLine="65" d="M614,74.35 C614,91.26 614,94.69 614,115.65 " fill="none" id="Circle-to-Ellipse" style="stroke:#181818;stroke-width:1.0;"/><polygon fill="none" points="614,133.65,620,115.65,608,115.65,614,133.65" style="stroke:#181818;stroke-width:1.0;"/></g><!--link Triangle to Shape--><g id="link_Triangle_Shape"><path codeLine="66" d="M920.64,267.67 C859.91,304.87 793.1093,345.788 729.1293,384.978 " fill="none" id="Triangle-to-Shape" style="stroke:#181818;stroke-width:1.0;"/><polygon fill="none" points="713.78,394.38,732.2633,390.0944,725.9953,379.8615,713.78,394.38" style="stroke:#181818;stroke-width:1.0;"/></g><!--SRC=[dLH1Ry8W6BttLn1FhLgJxMWM4pLBTl2mw0xj4IbHCWPTGJFZ_EzhWK9BCKlqOhxtlGVlVK0HXKA0TqwOl4QW_gNWPmuAVjfJREfBhvveScnPKqT83EE0PHOddgm6ym68A6UuGTMY1lpYPvp51QOIsfKzNKF9xr5kKOHKh0rX6BInocQ7PNSdWwtwkpUYk4UUzdcTbAfU-lxRnYhGs55Uuj1iDfWTv77GaHLaWaA9TTZCJLtLUIVzcPEYoGxtebOX2VGGTaTOUbCGypgba2_AsyBiT6rrjyREii8mP5D9HDCPhl20LsrnYv64x41RcnE7n073YSc2ZXXzMkOR5CfqI307UyufXim5yG9QBxll4woS4Ls6NLZDAwMa56x85Ip8IMJUEz9exitKQFKEzi9vAqnzSN8tYCMtUedxhJmKVqqgr3a7NGRDEIjM_56H_Z6smB-dkEQqVdQm8lBo-07gcpvw6e4q7TV_izbuPDwV-XBOpdCBkukNfhyB_LGYSmCKOWbHUyOTefcLGamxiYFeyFu0]--></g></svg>